<svg width="32" height="40" viewBox="0 0 32 40" fill="none" xmlns="http://www.w3.org/2000/svg">
  <!-- Acorn nut body -->
  <path d="M16 4C10 4 6 8 6 14C6 16.5 7.5 19 9 21L11 27L21 27L23 21C24.5 19 26 16.5 26 14C26 8 22 4 16 4Z" fill="currentColor"/>
  <!-- Acorn cap -->
  <path d="M16 4L20 10L16 12L12 10L16 4Z" fill="currentColor" opacity="0.9"/>
  <!-- Cap texture lines -->
  <path d="M14 7L18 7M15 8L17 8" stroke="currentColor" stroke-width="0.5" opacity="0.6"/>
  <!-- Nut body highlight -->
  <ellipse cx="16" cy="18" rx="6" ry="8" fill="currentColor" opacity="0.3"/>
  <!-- Stem -->
  <path d="M17 10C17 10.5 16.5 11 16 11C15.5 11 15 10.5 15 10" stroke="currentColor" stroke-width="1.5" stroke-linecap="round" fill="none"/>
  <path d="M16 27L16 32L14 34L18 34L16 32Z" fill="currentColor"/>
</svg>
